PathFileType	4	(X/Y/Z)	13_coords_data.trc
DataRate	CameraRate	NumFrames	NumMarkers	Units	OrigDataRate	OrigDataStartFrame	OrigNumFrames
30.0	30.0	7	21	m	30.0	19	66
Frame#	Time	THUMB_TIP	THUMB_IP	THUMB_MCP	THUMB_CMC	INDEX_TIP	INDEX_DIP	INDEX_PIP	INDEX_MCP	MIDDLE_TIP	MIDDLE_DIP	MIDDLE_PIP	MIDDLE_MCP	RING_TIP	RING_DIP	RING_PIP	RING_MCP	PINKY_TIP	PINKY_DIP	PINKY_PIP	PINKY_MCP	WRIST
X1	Y1	Z1	X2	Y2	Z2	X3	Y3	Z3	X4	Y4	Z4	X5	Y5	Z5	X6	Y6	Z6	X7	Y7	Z7	X8	Y8	Z8	X9	Y9	Z9	X10	Y10	Z10	X11	Y11	Z11	X12	Y12	Z12	X13	Y13	Z13	X14	Y14	Z14	X15	Y15	Z15	X16	Y16	Z16	X17	Y17	Z17	X18	Y18	Z18	X19	Y19	Z19	X20	Y20	Z20	X21	Y21	Z21
17	0.5999999999999973	0.49352167360330895	-0.0331842785712001	-0.17019023824624052	0.49006796797767915	-0.034863673199648004	-0.14753518249408148	0.47323414919646484	-0.03594393554918385	-0.1213765208597889	0.4718438837678271	-0.033547959569664276	-0.07685443127334313	0.5720957647342473	0.02424909357649596	-0.1670670722740087	0.556204672758593	0.023389357010358824	-0.15842218656868312	0.535181450902856	0.019022488406464255	-0.1453468496934519	0.5067253756285046	-0.00048792124394669845	-0.12038223895637834	0.5982591976061857	0.03829660755314723	-0.13519467058457224	0.581685097893468	0.03469520169495122	-0.1288441513493097	0.555199697173807	0.027911065838098326	-0.11874917242933436	0.5184638361571459	0.009209569630212688	-0.101519010620721	0.6056282014860626	0.022243940189286104	-0.1112619328510267	0.5889482879922348	0.0219943907550173	-0.10442686072863627	0.5658052098958009	0.02029932803252743	-0.0953877967511445	0.5294970675609368	0.007552376345930534	-0.08297994210616955	0.6062648375005253	-0.007413052459305902	-0.06510910071959153	0.5893418338778063	-0.005268419515520595	-0.06369047535612604	0.5685206165705772	-0.002724627432364346	-0.06278601381309801	0.5324540435568037	-0.0027685338106179236	-0.06307555529906261	0.46228308100186094	-0.023011742144276925	-0.051989820119430985
18	0.6333333333333304	0.4937764682476468	-0.03338549974768812	-0.17010961180803713	0.4902028624618564	-0.034993726234571754	-0.1474679919619516	0.47329302735405865	-0.036028064855396114	-0.12135654580811783	0.4718839920433838	-0.03354610846724004	-0.07683975670579646	0.572288179906892	0.02409901797785352	-0.1668924352756755	0.5563694303539953	0.023300360506020468	-0.1582926934821774	0.5353084938791501	0.0189870870258384	-0.14526033146726658	0.5067584419287883	-0.00045524987928879934	-0.12034996889866545	0.5983775750594549	0.038155687030329344	-0.13505621054586148	0.5817839021134725	0.03461013867363483	-0.128725404514074	0.5552720602534745	0.02787984002742494	-0.11866385039339833	0.5184747498304048	0.00926616140409886	-0.10146975737469632	0.6056579866053996	0.02221697757794061	-0.11112599850726668	0.588966189817536	0.022013566608871438	-0.10431846268508183	0.5658086445417361	0.02036039102226861	-0.09530874092027997	0.5294836385816839	0.0076556632299117355	-0.08290693993315346	0.6062288047207536	-0.00723324777719192	-0.06500127962503	0.589308160015328	-0.005073983075734589	-0.06357672400948089	0.5684897467229354	-0.0025014444360234034	-0.06268918137144963	0.5324233971547111	-0.002614891691298249	-0.06298752604280611	0.4622830810018609	-0.023011742144276925	-0.051989820119430985
19	0.6666666666666637	0.49398263943558235	-0.03350536729757969	-0.1700467193068303	0.4903063768271327	-0.035060650328680776	-0.1474178397957523	0.47333927789054897	-0.036074060440310696	-0.12134274528735545	0.47192606108318186	-0.033531895608708506	-0.07682948640615994	0.5724687467284985	0.023947717204047758	-0.1667293492330429	0.5565256664172645	0.023206026653462386	-0.15816967135845433	0.5354262984961167	0.018958296360955806	-0.14517800889015742	0.5067876825500426	-0.00041962202160605866	-0.12031916640197926	0.5984888915230672	0.038009172392130974	-0.13493813594435977	0.581875873355548	0.03451905055287263	-0.12862729789281613	0.5553435513601134	0.027841727554778428	-0.1185844498351335	0.5184884541130845	0.009310195556973211	-0.10142542743505578	0.6056711681325053	0.022185883253285743	-0.11104844532405722	0.5889713713131708	0.022007066102609052	-0.10425986589831793	0.5658096752837198	0.020407022952212084	-0.09525122127461438	0.5294710947139618	0.007750034346011736	-0.08284037780619014	0.6061975059209931	-0.007017025484963857	-0.06496972918174249	0.589278073805961	-0.00485531628661906	-0.06353451830991497	0.5684602101253181	-0.0022825261927418294	-0.06263489510711462	0.5323939813386467	-0.0024717371615177175	-0.06290837511876746	0.46228308100186083	-0.023011742144276925	-0.051989820119430985
20	0.6999999999999968	0.4941774710314948	-0.03360560947267133	-0.16998758851189238	0.4904089971937163	-0.03511247714059473	-0.1473706047438178	0.473390880250719	-0.03611724479211287	-0.12132844397169806	0.4719587744267484	-0.03352775311402034	-0.07681851692437469	0.5725995459928244	0.02385943904008969	-0.166596642726849	0.5566343347101805	0.023164380873779367	-0.15807438229630666	0.5355084295806691	0.01894484060156898	-0.14511670328538495	0.5067891656933389	-0.0003698268629223067	-0.12030171594897854	0.5985308643293634	0.03798178184459555	-0.13484747614971637	0.5819107933444168	0.034520181715355536	-0.1285394998497783	0.5553575605046904	0.027879090497136216	-0.11852794236901754	0.518463635924765	0.009402351592546876	-0.10139328831524652	0.6056388492326858	0.022275673553244668	-0.11098529902688259	0.5889341397230631	0.022106831738906818	-0.10420856141643542	0.5657681865339005	0.020545147590705137	-0.09520413281386508	0.5294302838784208	0.00789788730013996	-0.08278139270776985	0.6061457818476973	-0.00670473920132586	-0.06492222062791642	0.589225392996529	-0.004555318340742298	-0.06347985067213302	0.56840723329096	-0.0019890452631752265	-0.06256853954810448	0.5323416039194757	-0.002262814359276777	-0.06284939452982552	0.4622830810018609	-0.023011742144276925	-0.051989820119430985
21	0.7333333333333302	0.49434023518005005	-0.03369887525166304	-0.16993312563456797	0.49049913022110164	-0.035163821522511185	-0.1473256081875356	0.4734306650046193	-0.036168376664257096	-0.12131641050439046	0.47197267581125435	-0.033535343006616536	-0.07680987838527598	0.5726475152849313	0.02380674207086031	-0.16652566834696247	0.5566673794402606	0.023140625145769422	-0.15802910747635263	0.5355158869969043	0.018961398572018395	-0.14510013746076733	0.5067490985545016	-0.0003131142616863425	-0.12030898719028982	0.5985078501836687	0.03801998959995745	-0.13482879320016472	0.5818867332223264	0.03457193092420152	-0.12851615806688443	0.5553218238106103	0.02795274876399023	-0.1185210810047872	0.518420798325312	0.009495343491139119	-0.10138088177236626	0.6055716981492936	0.02242722690516563	-0.11098115778411433	0.5888662530455719	0.02224467148043474	-0.10420658935480087	0.5657012689389578	0.02070732136539344	-0.09519548259901922	0.529375279569865	0.00804595928866847	-0.08275228201723006	0.6061018203058468	-0.006421061720468968	-0.0649009277168684	0.5891799756727286	-0.004284423612899491	-0.06345664526184458	0.5683611516515623	-0.0017286343453600805	-0.06253115804116671	0.5322960996665826	-0.002082346452966899	-0.06279642029940968	0.46228308100186094	-0.023011742144276925	-0.051989820119430985
22	0.7666666666666633	0.4945052291923372	-0.03376658272570621	-0.1698919202889877	0.49060143640349374	-0.03520630573078232	-0.1472935221260553	0.4734894510545467	-0.036211770880005933	-0.12131297176138589	0.4719589637493957	-0.0335456823393111	-0.07681084169436614	0.5726767081199363	0.023747398575280187	-0.16648740582143157	0.5566855886872795	0.023100857317886025	-0.15801001921393343	0.5355119268743569	0.01896169417943827	-0.14510446975080304	0.506726846141823	-0.0002876602849622989	-0.12031500477220058	0.5985064055430391	0.038013729728771595	-0.13480248775175552	0.5818806779146033	0.034577758290383453	-0.1284954059305291	0.55530372821604	0.02798107789563875	-0.11851747515858857	0.5183884471841159	0.009545207995401261	-0.1013847973656814	0.6055329141028221	0.022494289567172365	-0.1109756736835169	0.5888221890469629	0.022309181904546338	-0.1042142091039514	0.5656596604343718	0.020796551408170827	-0.0951926130005818	0.5293290370819979	0.008148325439429671	-0.08274958199235816	0.6060768410880034	-0.006282511354861575	-0.06486647246726285	0.5891540666250717	-0.004147699312287312	-0.06343040769865838	0.568332726855694	-0.0016159643694881876	-0.062495449203568976	0.5322678509845249	-0.0019768758766026684	-0.06277459483078596	0.46228308100186083	-0.023011742144276925	-0.051989820119430985
23	0.7999999999999965	0.4945496535728555	-0.03383795109493015	-0.1698731642691973	0.4906272725006496	-0.035249028480860756	-0.14727617802467086	0.47350021428653793	-0.03624762083258548	-0.12130529644076016	0.4719536120590605	-0.033565010131676565	-0.0768047164290645	0.5726731004555077	0.023692023680199625	-0.1664708867006836	0.5566684521541561	0.023065213162155263	-0.15801758312607378	0.5354727158083017	0.018958284004751857	-0.14513799747073908	0.5066896352359319	-0.0002778089373548509	-0.12033591902785234	0.5984674051093253	0.03806149491465438	-0.13481057268836683	0.5818421504833139	0.03462589782937964	-0.12850204026886236	0.5552609900736805	0.02802572547089155	-0.11853764434559688	0.5183475430147622	0.009587993277316964	-0.10140301920273287	0.6054791369167889	0.022623143402558332	-0.11098932040481557	0.588768187447323	0.02241353771629706	-0.10422912563800268	0.5656084435297157	0.020899106714352023	-0.0952006850522088	0.5292785560349096	0.008244892362176848	-0.08276159474206402	0.6060485414835206	-0.0061198210148083465	-0.06480525259158687	0.5891228383991481	-0.003997693040403871	-0.06338498924983815	0.5682986320599649	-0.0014882094634318666	-0.06245389230535481	0.5322343031349492	-0.0018667556023536092	-0.06277689851115709	0.4622830810018609	-0.023011742144276925	-0.051989820119430985
